<svg xmlns="http://www.w3.org/2000/svg" xmlns:xlink="http://www.w3.org/1999/xlink"
    viewBox="0,0,256,256" width="48px" height="48px">
    <g transform="">
        <g fill-opacity="0" fill="#dddddd" fill-rule="nonzero" stroke="none" stroke-width="1"
            stroke-linecap="butt" stroke-linejoin="miter" stroke-miterlimit="10" stroke-dasharray=""
            stroke-dashoffset="0" font-family="none" font-weight="none" font-size="none"
            text-anchor="none" style="mix-blend-mode: normal">
            <path d="M0,256v-256h256v256z" id="bgRectangle"></path>
        </g>
        <g fill="none" fill-rule="nonzero" stroke="none" stroke-width="1" stroke-linecap="butt"
            stroke-linejoin="miter" stroke-miterlimit="10" stroke-dasharray="" stroke-dashoffset="0"
            font-family="none" font-weight="none" font-size="none" text-anchor="none"
            style="mix-blend-mode: normal">
            <g transform="scale(5.33333,5.33333)">
                <circle cx="24" cy="24" r="20" fill="#26a69a"></circle>
                <rect x="15" y="13" width="18" height="5" fill="#ffffff"></rect>
                <path
                    d="M24,21c-4.457,0 -12,0.737 -12,3.5c0,2.763 7.543,3.5 12,3.5c4.457,0 12,-0.737 12,-3.5c0,-2.763 -7.543,-3.5 -12,-3.5zM24,26c-5.523,0 -10,-0.895 -10,-2c0,-1.105 4.477,-2 10,-2c5.523,0 10,0.895 10,2c0,1.105 -4.477,2 -10,2z"
                    fill="#ffffff"></path>
                <path
                    d="M24,24c1.095,0 2.093,-0.037 3,-0.098v-10.902h-6v10.902c0.907,0.061 1.905,0.098 3,0.098z"
                    fill="#ffffff"></path>
                <path
                    d="M25.723,25.968c-0.111,0.004 -0.223,0.007 -0.336,0.01c-0.455,0.013 -0.915,0.022 -1.387,0.022c-0.472,0 -0.932,-0.009 -1.387,-0.021c-0.113,-0.003 -0.225,-0.006 -0.336,-0.01c-0.435,-0.015 -0.863,-0.034 -1.277,-0.06v10.091h6v-10.092c-0.414,0.026 -0.842,0.045 -1.277,0.06z"
                    fill="#ffffff"></path>
            </g>
        </g>
    </g>
</svg>